<?xml version="1.0" encoding="UTF-8"?>
<!DOCTYPE svg PUBLIC "-//W3C//DTD SVG 1.1//EN" "http://www.w3.org/Graphics/SVG/1.1/DTD/svg11.dtd">
<!-- Creator: CorelDRAW 2019 (64 Bit) -->
<svg xmlns="http://www.w3.org/2000/svg" xml:space="preserve" width="51.341mm" height="59.638mm" version="1.1" style="shape-rendering:geometricPrecision; text-rendering:geometricPrecision; image-rendering:optimizeQuality; fill-rule:evenodd; clip-rule:evenodd"
viewBox="0 0 223.35 259.45"
 xmlns:xlink="http://www.w3.org/1999/xlink">
 <defs>
  <style type="text/css">
   <![CDATA[
    .fil3 {fill:black;fill-rule:nonzero}
    .fil0 {fill:#4CAF50;fill-opacity:0.501961}
    .fil1 {fill:#63B2EA;fill-opacity:0.701961}
    .fil2 {fill:#F6D548;fill-opacity:0.701961}
   ]]>
  </style>
 </defs>
 <g id="Camada_x0020_1">
  <metadata id="CorelCorpID_0Corel-Layer"/>
  <g id="_2156885020416">
   <path class="fil0" d="M111.68 0c-32.18,24.53 -52.95,63.26 -52.95,106.85 0,43.59 20.77,82.32 52.95,106.85 32.18,-24.53 52.95,-63.26 52.95,-106.85 0,-43.59 -20.77,-82.32 -52.95,-106.85z"/>
   <path class="fil1" d="M3.35 77.54c-8.06,31.94 -1.66,67.15 20.43,94.92 22.1,27.77 54.96,41.92 87.9,41.24 8.06,-31.94 1.66,-67.15 -20.43,-94.92 -22.1,-27.77 -54.96,-41.92 -87.9,-41.24z"/>
   <path class="fil2" d="M220.01 77.54c8.06,31.94 1.66,67.15 -20.43,94.92 -22.1,27.77 -54.96,41.92 -87.9,41.24 -8.06,-31.94 -1.66,-67.15 20.43,-94.92 22.1,-27.77 54.96,-41.92 87.9,-41.24z"/>
  </g>
  <polygon class="fil3" points="87.05,231.82 87.05,232.89 80.76,232.89 80.76,259.45 79.54,259.45 79.54,232.89 73.17,232.89 73.17,231.82 "/>
  <path id="1" class="fil3" d="M90.55 231.82l1.58 0c2.38,0 4.48,0.88 6.28,2.63 1.8,1.76 2.71,3.82 2.71,6.19 0,2.37 -0.92,4.43 -2.76,6.17 -1.84,1.74 -3.82,2.62 -5.93,2.62l-0.26 0 9.5 10.02 -1.58 0 -8.36 -8.77 0 8.77 -1.18 0 0 -27.63zm1.18 16.54l0.66 0c1.99,0 3.74,-0.76 5.27,-2.28 1.52,-1.52 2.28,-3.33 2.28,-5.41 0,-2.09 -0.79,-3.9 -2.36,-5.45 -1.57,-1.55 -3.36,-2.32 -5.38,-2.32l-0.48 0 0 15.47z"/>
  <polygon id="2" class="fil3" points="105.73,231.82 106.94,231.82 106.94,259.45 105.73,259.45 "/>
  <path id="3" class="fil3" d="M112.62 231.82l1.22 0c2.55,0 4.73,0.88 6.52,2.63 1.79,1.76 2.69,3.82 2.69,6.21 0,2.38 -0.93,4.43 -2.78,6.15 -1.85,1.72 -3.9,2.58 -6.13,2.58l-0.29 0 0 10.06 -1.22 0 0 -27.63zm1.22 16.54l0.29 0c2.06,0 3.86,-0.76 5.4,-2.28 1.53,-1.52 2.3,-3.33 2.3,-5.41 0,-2.09 -0.78,-3.9 -2.34,-5.45 -1.56,-1.55 -3.35,-2.32 -5.36,-2.32l-0.29 0 0 15.47z"/>
  <polygon id="4" class="fil3" points="128.23,231.82 128.23,258.38 136.78,258.38 136.78,259.45 127.02,259.45 127.02,231.82 "/>
  <polygon id="5" class="fil3" points="140.28,231.82 150.19,231.82 150.19,232.89 141.49,232.89 141.49,247.92 148.75,247.92 148.75,248.99 141.49,248.99 141.49,258.38 150.19,258.38 150.19,259.45 140.28,259.45 "/>
 </g>
</svg>
