<?xml version="1.0" encoding="UTF-8"?>
<!DOCTYPE svg PUBLIC "-//W3C//DTD SVG 1.1//EN" "http://www.w3.org/Graphics/SVG/1.1/DTD/svg11.dtd">
<!-- Creator: CorelDRAW 2019 (64 Bit) -->
<svg xmlns="http://www.w3.org/2000/svg" xml:space="preserve" width="66.3664mm" height="66.3664mm" version="1.1" style="shape-rendering:geometricPrecision; text-rendering:geometricPrecision; image-rendering:optimizeQuality; fill-rule:evenodd; clip-rule:evenodd"
viewBox="0 0 378.38 378.38"
 xmlns:xlink="http://www.w3.org/1999/xlink">
 <defs>
  <style type="text/css">
   <![CDATA[
    .fil0 {fill:white}
    .fil4 {fill:black;fill-rule:nonzero}
    .fil1 {fill:#4CAF50;fill-opacity:0.501961}
    .fil2 {fill:#63B2EA;fill-opacity:0.701961}
    .fil3 {fill:#F6D548;fill-opacity:0.701961}
   ]]>
  </style>
 </defs>
 <g id="Camada_x0020_1">
  <metadata id="CorelCorpID_0Corel-Layer"/>
  <rect class="fil0" width="378.38" height="378.38"/>
  <g id="_1529199443616">
   <path class="fil1" d="M189.19 19.18c-42.17,32.15 -69.39,82.91 -69.39,140.03 0,57.12 27.22,107.88 69.39,140.03 42.17,-32.15 69.39,-82.91 69.39,-140.03 0,-57.12 -27.22,-107.88 -69.39,-140.03z"/>
   <path class="fil2" d="M47.22 120.81c-10.57,41.86 -2.18,88 26.78,124.4 28.96,36.39 72.03,54.93 115.2,54.04 10.57,-41.86 2.18,-88 -26.78,-124.4 -28.96,-36.39 -72.03,-54.93 -115.2,-54.04z"/>
   <path class="fil3" d="M331.17 120.81c10.57,41.86 2.18,88 -26.78,124.4 -28.96,36.39 -72.03,54.93 -115.2,54.04 -10.57,-41.86 -2.18,-88 26.78,-124.4 28.96,-36.39 72.03,-54.93 115.2,-54.04z"/>
  </g>
  <polygon class="fil4" points="156.92,323 156.92,324.4 148.67,324.4 148.67,359.2 147.07,359.2 147.07,324.4 138.72,324.4 138.72,323 "/>
  <path id="1" class="fil4" d="M161.51 323l2.08 0c3.12,0 5.87,1.15 8.23,3.45 2.37,2.3 3.55,5 3.55,8.11 0,3.11 -1.21,5.8 -3.62,8.09 -2.41,2.29 -5,3.43 -7.77,3.43l-0.34 0 12.45 13.13 -2.08 0 -10.96 -11.49 0 11.49 -1.54 0 0 -36.2zm1.54 21.67l0.87 0c2.61,0 4.91,-1 6.9,-2.99 1.99,-2 2.99,-4.36 2.99,-7.1 0,-2.74 -1.03,-5.12 -3.09,-7.14 -2.06,-2.03 -4.41,-3.04 -7.05,-3.04l-0.63 0 0 20.27z"/>
  <polygon id="2" class="fil4" points="181.4,323 182.99,323 182.99,359.2 181.4,359.2 "/>
  <path id="3" class="fil4" d="M190.42 323l1.59 0c3.35,0 6.2,1.15 8.54,3.45 2.35,2.3 3.52,5.01 3.52,8.13 0,3.12 -1.21,5.81 -3.64,8.06 -2.43,2.25 -5.11,3.38 -8.04,3.38l-0.39 0 0 13.18 -1.59 0 0 -36.2zm1.59 21.67l0.39 0c2.7,0 5.06,-1 7.07,-2.99 2.01,-2 3.02,-4.36 3.02,-7.1 0,-2.74 -1.02,-5.12 -3.07,-7.14 -2.04,-2.03 -4.38,-3.04 -7.02,-3.04l-0.39 0 0 20.27z"/>
  <polygon id="4" class="fil4" points="210.89,323 210.89,357.8 222.09,357.8 222.09,359.2 209.3,359.2 209.3,323 "/>
  <polygon id="5" class="fil4" points="226.68,323 239.66,323 239.66,324.4 228.27,324.4 228.27,344.09 237.78,344.09 237.78,345.49 228.27,345.49 228.27,357.8 239.66,357.8 239.66,359.2 226.68,359.2 "/>
 </g>
</svg>
