<?xml version="1.0" encoding="UTF-8"?>
<!DOCTYPE svg PUBLIC "-//W3C//DTD SVG 1.1//EN" "http://www.w3.org/Graphics/SVG/1.1/DTD/svg11.dtd">
<!-- Creator: CorelDRAW 2019 (64 Bit) -->
<svg xmlns="http://www.w3.org/2000/svg" xml:space="preserve" width="51.341mm" height="49.1266mm" version="1.1" style="shape-rendering:geometricPrecision; text-rendering:geometricPrecision; image-rendering:optimizeQuality; fill-rule:evenodd; clip-rule:evenodd"
viewBox="0 0 223.35 213.72"
 xmlns:xlink="http://www.w3.org/1999/xlink">
 <defs>
  <style type="text/css">
   <![CDATA[
    .fil0 {fill:#4CAF50;fill-opacity:0.501961}
    .fil1 {fill:#63B2EA;fill-opacity:0.701961}
    .fil2 {fill:#F6D548;fill-opacity:0.701961}
   ]]>
  </style>
 </defs>
 <g id="Camada_x0020_1">
  <metadata id="CorelCorpID_0Corel-Layer"/>
  <g id="_2156816941344">
   <path class="fil0" d="M111.68 0c-32.18,24.53 -52.95,63.26 -52.95,106.85 0,43.59 20.77,82.32 52.95,106.85 32.18,-24.53 52.95,-63.26 52.95,-106.85 0,-43.59 -20.77,-82.32 -52.95,-106.85z"/>
   <path class="fil1" d="M3.35 77.54c-8.06,31.94 -1.66,67.15 20.43,94.92 22.1,27.77 54.96,41.92 87.9,41.24 8.06,-31.94 1.66,-67.15 -20.43,-94.92 -22.1,-27.77 -54.96,-41.92 -87.9,-41.24z"/>
   <path class="fil2" d="M220.01 77.54c8.06,31.94 1.66,67.15 -20.43,94.92 -22.1,27.77 -54.96,41.92 -87.9,41.24 -8.06,-31.94 -1.66,-67.15 20.43,-94.92 22.1,-27.77 54.96,-41.92 87.9,-41.24z"/>
  </g>
 </g>
</svg>
